# 3ds Max Wavefront OBJ Exporter v0.97b - (c)2007 guruware
# File Created: 29.10.2015 22:43:16

mtllib Helps.mtl

#
# object Front1
#

v  8.4502 12.1183 0.8326
v  8.4502 12.1183 0.0850
v  -6.4708 12.1183 0.0850
v  -6.4708 12.1183 0.8326
v  8.4502 5.3417 0.8326
v  -6.4708 5.3417 0.8326
v  -6.4708 5.3417 0.0850
v  8.4502 5.3417 0.0850
# 8 vertices

vn 0.0000 1.0000 -0.0000
vn 0.0000 -1.0000 -0.0000
vn 1.0000 0.0000 -0.0000
vn -0.0000 0.0000 -1.0000
vn -1.0000 0.0000 0.0000
vn 0.0000 0.0000 1.0000
# 6 vertex normals

vt 1.0000 0.0000 0.0000
vt 0.0000 0.0000 0.0000
vt 0.0000 1.0000 0.0000
vt 1.0000 1.0000 0.0000
# 4 texture coords

g Front1
usemtl wire_166229229
s 2
f 1/1/1 2/2/1 3/3/1 4/4/1 
s 4
f 5/2/2 6/3/2 7/4/2 8/1/2 
s 8
f 1/2/3 5/3/3 8/4/3 2/1/3 
s 16
f 2/2/4 8/3/4 7/4/4 3/1/4 
s 32
f 3/2/5 7/3/5 6/4/5 4/1/5 
s 64
f 4/2/6 6/3/6 5/4/6 1/1/6 
# 6 polygons

#
# object Back1
#

v  5.8882 -4.3325 0.1048
v  5.0621 -4.3540 0.1048
v  5.0621 -4.3540 -0.5232
v  5.8882 -4.3325 -0.5232
v  5.3683 15.6994 0.1048
v  5.3683 15.6994 -0.5232
v  4.5422 15.6780 -0.5232
v  4.5422 15.6780 0.1048
# 8 vertices

vn 0.0259 -0.9997 -0.0000
vn -0.0259 0.9997 0.0000
vn 0.9997 0.0259 -0.0000
vn -0.0000 0.0000 -1.0000
vn -0.9997 -0.0259 0.0000
vn 0.0000 0.0000 1.0000
# 6 vertex normals

vt 1.0000 0.0000 0.0000
vt 1.0000 1.0000 0.0000
vt 0.0000 1.0000 0.0000
vt 0.0000 0.0000 0.0000
# 4 texture coords

g Back1
usemtl wire_115115115
s 2
f 9/5/7 10/6/7 11/7/7 12/8/7 
s 4
f 13/8/8 14/5/8 15/6/8 16/7/8 
s 8
f 9/8/9 12/5/9 14/6/9 13/7/9 
s 16
f 12/8/10 11/5/10 15/6/10 14/7/10 
s 32
f 11/8/11 10/5/11 16/6/11 15/7/11 
s 64
f 10/8/12 9/5/12 13/6/12 16/7/12 
# 6 polygons

#
# object Back2
#

v  -2.8342 -4.1700 0.1048
v  -3.6601 -4.1412 0.1048
v  -3.6601 -4.1412 -0.5232
v  -2.8342 -4.1700 -0.5232
v  -2.1349 15.8564 0.1048
v  -2.1349 15.8564 -0.5232
v  -2.9608 15.8853 -0.5232
v  -2.9608 15.8853 0.1048
# 8 vertices

vn -0.0349 -0.9994 0.0000
vn 0.0349 0.9994 -0.0000
vn 0.9994 -0.0349 -0.0000
vn -0.0000 0.0000 -1.0000
vn -0.9994 0.0349 0.0000
vn 0.0000 0.0000 1.0000
# 6 vertex normals

vt 1.0000 0.0000 0.0000
vt 1.0000 1.0000 0.0000
vt 0.0000 1.0000 0.0000
vt 0.0000 0.0000 0.0000
# 4 texture coords

g Back2
usemtl wire_115115115
s 2
f 17/9/13 18/10/13 19/11/13 20/12/13 
s 4
f 21/12/14 22/9/14 23/10/14 24/11/14 
s 8
f 17/12/15 20/9/15 22/10/15 21/11/15 
s 16
f 20/12/16 19/9/16 23/10/16 22/11/16 
s 32
f 19/12/17 18/9/17 24/10/17 23/11/17 
s 64
f 18/12/18 17/9/18 21/10/18 24/11/18 
# 6 polygons

#
# object Front2
#

v  7.1998 16.9790 0.5204
v  7.1998 16.9790 0.0642
v  -5.3638 16.4816 0.0642
v  -5.3638 16.4816 0.5204
v  7.3432 13.3553 0.5204
v  -5.2204 12.8579 0.5204
v  -5.2204 12.8579 0.0642
v  7.3432 13.3553 0.0642
# 8 vertices

vn -0.0396 0.9992 0.0000
vn 0.0396 -0.9992 -0.0000
vn 0.9992 0.0396 -0.0000
vn -0.0000 0.0000 -1.0000
vn -0.9992 -0.0396 0.0000
vn 0.0000 0.0000 1.0000
# 6 vertex normals

vt 1.0000 0.0000 0.0000
vt 0.0000 0.0000 0.0000
vt 0.0000 1.0000 0.0000
vt 1.0000 1.0000 0.0000
# 4 texture coords

g Front2
usemtl wire_166229229
s 2
f 25/13/19 26/14/19 27/15/19 28/16/19 
s 4
f 29/14/20 30/15/20 31/16/20 32/13/20 
s 8
f 25/14/21 29/15/21 32/16/21 26/13/21 
s 16
f 26/14/22 32/15/22 31/16/22 27/13/22 
s 32
f 27/14/23 31/15/23 30/16/23 28/13/23 
s 64
f 28/14/24 30/15/24 29/16/24 25/13/24 
# 6 polygons

