# 3ds Max Wavefront OBJ Exporter v0.97b - (c)2007 guruware
# File Created: 09.11.2015 01:18:06

mtllib Spot.mtl

#
# object GeoSphere001
#

v  0.0000 2.1455 -0.0000
v  2.0228 -0.7152 -0.0000
v  -1.0114 -0.7152 -1.7518
v  -1.0114 -0.7152 1.7518
# 4 vertices

vn 0.0000 1.0000 -0.0000
vn 0.9428 -0.3333 -0.0000
vn -0.4714 -0.3333 -0.8165
vn -0.4714 -0.3333 0.8165
# 4 vertex normals

vt 0.6667 1.0000 25.0000
vt 0.5000 0.3918 25.0000
vt 0.8333 0.3918 25.0000
vt -0.0000 1.0000 25.0000
vt -0.1667 0.3918 25.0000
vt 0.1667 0.3918 25.0000
vt 0.3333 1.0000 25.0000
# 7 texture coords

g GeoSphere001
usemtl wire_113135006
s 1
f 1/1/1 2/2/2 3/3/3 
f 1/4/1 3/5/3 4/6/4 
f 1/7/1 4/6/4 2/2/2 
f 2/2/2 4/6/4 3/5/3 
# 0 polygons - 4 triangles

